<svg width="24" height="24" viewBox="0 0 24 24" fill="none" xmlns="http://www.w3.org/2000/svg">
<path d="M0.4728 17.012C0.4728 17.012 9.5376 22.6733 11.3808 23.824C11.5788 23.948 11.7804 24 11.9712 24C12.1848 24 12.384 23.9347 12.552 23.8307C14.4072 22.68 23.538 17.0133 23.538 17.0133C23.8332 16.8293 24 16.4893 24 16.1387C24 15.384 23.2632 14.8933 22.6608 15.2667C22.6608 15.2667 14.1984 20.544 12.414 21.6267C12.1608 21.78 11.8812 21.8413 11.5476 21.6347C9.5688 20.3973 1.3548 15.268 1.3548 15.268C0.7524 14.892 0.0144001 15.3813 0.0144001 16.1387C0.0144001 16.488 0.1788 16.828 0.4728 17.012ZM0.4728 12.8613C0.4728 12.8613 9.5376 18.5227 11.3808 19.6733C11.5788 19.7973 11.7804 19.8493 11.9712 19.8493C12.1848 19.8493 12.384 19.784 12.552 19.68C14.4072 18.5293 23.538 12.8627 23.538 12.8627C23.8332 12.6787 24 12.3387 24 11.988C24 11.2333 23.2632 10.7427 22.6608 11.116C22.6608 11.116 14.1984 16.3933 12.414 17.476C12.1608 17.6293 11.8812 17.6907 11.5476 17.484C9.5688 16.2467 1.3548 11.1173 1.3548 11.1173C0.7524 10.7413 0.0144001 11.2307 0.0144001 11.988C0.0144001 12.3373 0.1788 12.6773 0.4728 12.8613ZM12.798 0.254667C12.5028 0.084 12.2328 0 11.9676 0C11.7 0 11.436 0.0866666 11.1576 0.254667L0.4968 6.928C0.1656 7.172 0 7.52 0 7.85867C0 8.2 0.1668 8.532 0.4968 8.744L11.1576 15.4187C11.4228 15.596 11.694 15.6893 11.9712 15.6893C12.2388 15.6893 12.5136 15.6027 12.798 15.4187L23.4588 8.744C23.8128 8.52267 24 8.18267 24 7.83733C24 7.504 23.826 7.16667 23.4588 6.928L12.798 0.254667ZM2.7132 7.836L11.9784 2.03733L21.2424 7.836L11.9784 13.636L2.7132 7.836Z" fill="#ADADAD"/>
</svg>
