<svg width="28" height="12" viewBox="0 0 24 12" fill="none" xmlns="http://www.w3.org/2000/svg">
<path d="M17.997 12H16.999C16.999 10.448 17.059 10.225 16.119 10.007C14.681 9.675 13.322 9.362 12.826 8.278C12.646 7.882 12.525 7.23 12.981 6.371C14.002 4.442 14.258 2.788 13.683 1.833C13.011 0.718 10.976 0.713 10.298 1.85C9.722 2.818 9.982 4.463 11.011 6.362C11.476 7.218 11.359 7.872 11.179 8.27C10.689 9.359 9.343 9.67 7.917 9.998C6.935 10.225 6.997 10.433 6.997 12H6.002L6 11.377C6 10.118 6.1 9.392 7.588 9.048C9.27 8.659 10.932 8.312 10.133 6.839C7.767 2.474 9.457 0 11.998 0C14.49 0 16.225 2.383 13.865 6.839C13.09 8.303 14.689 8.651 16.41 9.048C17.9 9.392 17.999 10.12 17.999 11.381L17.997 12ZM22.807 9.786C21.518 9.488 20.318 9.227 20.899 8.129C22.669 4.787 21.369 3 19.499 3C18.234 3 17.251 3.817 17.251 5.325C17.251 6.594 17.825 7.5 18.155 8.25H19.203C19.033 7.5 17.737 5.688 18.437 4.514C18.849 3.822 20.141 3.821 20.551 4.502C20.931 5.133 20.732 6.314 20.017 7.663C19.629 8.396 19.737 8.964 19.896 9.311C20.201 9.977 20.873 10.298 21.633 10.519C23.14 10.96 23.001 10.561 23.001 11.999H23.998L24 11.536C24 10.591 23.926 10.044 22.807 9.786ZM0.002 12H0.999C0.999 10.562 0.86 10.961 2.367 10.52C3.128 10.299 3.8 9.978 4.104 9.312C4.263 8.964 4.371 8.397 3.983 7.664C3.268 6.315 3.069 5.134 3.449 4.503C3.859 3.821 5.151 3.822 5.563 4.515C6.263 5.69 4.967 7.501 4.797 8.251H5.845C6.175 7.501 6.749 6.595 6.749 5.326C6.75 3.817 5.767 3 4.502 3C2.632 3 1.332 4.787 3.102 8.129C3.683 9.228 2.483 9.488 1.194 9.786C0.074 10.044 0 10.591 0 11.537L0.002 12Z" fill="#ADADAD"/>
</svg>
